<svg id="visual" viewBox="0 0 1920 1080" width="1920" height="1080" xmlns="http://www.w3.org/2000/svg" xmlns:xlink="http://www.w3.org/1999/xlink" version="1.1"><rect x="0" y="0" width="1920" height="1080" fill="#2a3751"></rect><defs><linearGradient id="grad1_0" x1="43.8%" y1="0%" x2="100%" y2="100%"><stop offset="14.444444444444446%" stop-color="#fbae3c" stop-opacity="1"></stop><stop offset="85.55555555555554%" stop-color="#fbae3c" stop-opacity="1"></stop></linearGradient></defs><defs><linearGradient id="grad1_1" x1="43.8%" y1="0%" x2="100%" y2="100%"><stop offset="14.444444444444446%" stop-color="#fbae3c" stop-opacity="1"></stop><stop offset="85.55555555555554%" stop-color="#fb8b52" stop-opacity="1"></stop></linearGradient></defs><defs><linearGradient id="grad1_2" x1="43.8%" y1="0%" x2="100%" y2="100%"><stop offset="14.444444444444446%" stop-color="#ea6f67" stop-opacity="1"></stop><stop offset="85.55555555555554%" stop-color="#fb8b52" stop-opacity="1"></stop></linearGradient></defs><defs><linearGradient id="grad1_3" x1="43.8%" y1="0%" x2="100%" y2="100%"><stop offset="14.444444444444446%" stop-color="#ea6f67" stop-opacity="1"></stop><stop offset="85.55555555555554%" stop-color="#cb5c78" stop-opacity="1"></stop></linearGradient></defs><defs><linearGradient id="grad1_4" x1="43.8%" y1="0%" x2="100%" y2="100%"><stop offset="14.444444444444446%" stop-color="#a2537f" stop-opacity="1"></stop><stop offset="85.55555555555554%" stop-color="#cb5c78" stop-opacity="1"></stop></linearGradient></defs><defs><linearGradient id="grad1_5" x1="43.8%" y1="0%" x2="100%" y2="100%"><stop offset="14.444444444444446%" stop-color="#a2537f" stop-opacity="1"></stop><stop offset="85.55555555555554%" stop-color="#754c7a" stop-opacity="1"></stop></linearGradient></defs><defs><linearGradient id="grad1_6" x1="43.8%" y1="0%" x2="100%" y2="100%"><stop offset="14.444444444444446%" stop-color="#4b436a" stop-opacity="1"></stop><stop offset="85.55555555555554%" stop-color="#754c7a" stop-opacity="1"></stop></linearGradient></defs><defs><linearGradient id="grad1_7" x1="43.8%" y1="0%" x2="100%" y2="100%"><stop offset="14.444444444444446%" stop-color="#4b436a" stop-opacity="1"></stop><stop offset="85.55555555555554%" stop-color="#2a3751" stop-opacity="1"></stop></linearGradient></defs><defs><linearGradient id="grad2_0" x1="0%" y1="0%" x2="56.3%" y2="100%"><stop offset="14.444444444444446%" stop-color="#fbae3c" stop-opacity="1"></stop><stop offset="85.55555555555554%" stop-color="#fbae3c" stop-opacity="1"></stop></linearGradient></defs><defs><linearGradient id="grad2_1" x1="0%" y1="0%" x2="56.3%" y2="100%"><stop offset="14.444444444444446%" stop-color="#fb8b52" stop-opacity="1"></stop><stop offset="85.55555555555554%" stop-color="#fbae3c" stop-opacity="1"></stop></linearGradient></defs><defs><linearGradient id="grad2_2" x1="0%" y1="0%" x2="56.3%" y2="100%"><stop offset="14.444444444444446%" stop-color="#fb8b52" stop-opacity="1"></stop><stop offset="85.55555555555554%" stop-color="#ea6f67" stop-opacity="1"></stop></linearGradient></defs><defs><linearGradient id="grad2_3" x1="0%" y1="0%" x2="56.3%" y2="100%"><stop offset="14.444444444444446%" stop-color="#cb5c78" stop-opacity="1"></stop><stop offset="85.55555555555554%" stop-color="#ea6f67" stop-opacity="1"></stop></linearGradient></defs><defs><linearGradient id="grad2_4" x1="0%" y1="0%" x2="56.3%" y2="100%"><stop offset="14.444444444444446%" stop-color="#cb5c78" stop-opacity="1"></stop><stop offset="85.55555555555554%" stop-color="#a2537f" stop-opacity="1"></stop></linearGradient></defs><defs><linearGradient id="grad2_5" x1="0%" y1="0%" x2="56.3%" y2="100%"><stop offset="14.444444444444446%" stop-color="#754c7a" stop-opacity="1"></stop><stop offset="85.55555555555554%" stop-color="#a2537f" stop-opacity="1"></stop></linearGradient></defs><defs><linearGradient id="grad2_6" x1="0%" y1="0%" x2="56.3%" y2="100%"><stop offset="14.444444444444446%" stop-color="#754c7a" stop-opacity="1"></stop><stop offset="85.55555555555554%" stop-color="#4b436a" stop-opacity="1"></stop></linearGradient></defs><defs><linearGradient id="grad2_7" x1="0%" y1="0%" x2="56.3%" y2="100%"><stop offset="14.444444444444446%" stop-color="#2a3751" stop-opacity="1"></stop><stop offset="85.55555555555554%" stop-color="#4b436a" stop-opacity="1"></stop></linearGradient></defs><g transform="translate(1920, 0)"><path d="M0 972C-99 887.8 -197.9 803.6 -317.6 766.8C-437.3 730 -577.8 740.6 -682.4 682.4C-787 624.1 -855.7 497.2 -898 372C-940.3 246.8 -956.2 123.4 -972 0L0 0Z" fill="#393d5e"></path><path d="M0 850.5C-86.6 776.8 -173.2 703.2 -277.9 671C-382.7 638.8 -505.5 648 -597.1 597.1C-688.6 546.1 -748.7 435 -785.8 325.5C-822.8 215.9 -836.6 108 -850.5 0L0 0Z" fill="#5f4873"></path><path d="M0 729C-74.2 665.9 -148.4 602.7 -238.2 575.1C-328 547.5 -433.3 555.4 -511.8 511.8C-590.2 468.1 -641.8 372.9 -673.5 279C-705.2 185.1 -717.1 92.5 -729 0L0 0Z" fill="#8c4f7e"></path><path d="M0 607.5C-61.9 554.9 -123.7 502.3 -198.5 479.3C-273.3 456.3 -361.1 462.9 -426.5 426.5C-491.8 390.1 -534.8 310.7 -561.3 232.5C-587.7 154.2 -597.6 77.1 -607.5 0L0 0Z" fill="#b7577d"></path><path d="M0 486C-49.5 443.9 -99 401.8 -158.8 383.4C-218.7 365 -288.9 370.3 -341.2 341.2C-393.5 312.1 -427.9 248.6 -449 186C-470.2 123.4 -478.1 61.7 -486 0L0 0Z" fill="#dc6471"></path><path d="M0 364.5C-37.1 332.9 -74.2 301.4 -119.1 287.6C-164 273.8 -216.7 277.7 -255.9 255.9C-295.1 234.1 -320.9 186.4 -336.8 139.5C-352.6 92.5 -358.6 46.3 -364.5 0L0 0Z" fill="#f47c5d"></path><path d="M0 243C-24.7 222 -49.5 200.9 -79.4 191.7C-109.3 182.5 -144.4 185.1 -170.6 170.6C-196.7 156 -213.9 124.3 -224.5 93C-235.1 61.7 -239 30.8 -243 0L0 0Z" fill="#fd9c46"></path><path d="M0 121.5C-12.4 111 -24.7 100.5 -39.7 95.9C-54.7 91.3 -72.2 92.6 -85.3 85.3C-98.4 78 -107 62.1 -112.3 46.5C-117.5 30.8 -119.5 15.4 -121.5 0L0 0Z" fill="#fbae3c"></path></g><g transform="translate(0, 1080)"><path d="M0 -972C123.9 -945.8 247.7 -919.5 361.3 -872.1C474.8 -824.8 578.1 -756.3 671.8 -671.8C765.4 -587.2 849.6 -486.6 898 -372C946.5 -257.3 959.2 -128.7 972 0L0 0Z" fill="#393d5e"></path><path d="M0 -850.5C108.4 -827.5 216.7 -804.6 316.1 -763.1C415.5 -721.7 505.8 -661.8 587.8 -587.8C669.8 -513.8 743.4 -425.8 785.8 -325.5C828.2 -225.2 839.3 -112.6 850.5 0L0 0Z" fill="#5f4873"></path><path d="M0 -729C92.9 -709.3 185.8 -689.6 270.9 -654.1C356.1 -618.6 433.5 -567.2 503.8 -503.8C574.1 -440.4 637.2 -365 673.5 -279C709.8 -193 719.4 -96.5 729 0L0 0Z" fill="#8c4f7e"></path><path d="M0 -607.5C77.4 -591.1 154.8 -574.7 225.8 -545.1C296.8 -515.5 361.3 -472.7 419.8 -419.8C478.4 -367 531 -304.1 561.3 -232.5C591.5 -160.8 599.5 -80.4 607.5 0L0 0Z" fill="#b7577d"></path><path d="M0 -486C61.9 -472.9 123.9 -459.8 180.6 -436.1C237.4 -412.4 289 -378.1 335.9 -335.9C382.7 -293.6 424.8 -243.3 449 -186C473.2 -128.7 479.6 -64.3 486 0L0 0Z" fill="#dc6471"></path><path d="M0 -364.5C46.4 -354.7 92.9 -344.8 135.5 -327.1C178.1 -309.3 216.8 -283.6 251.9 -251.9C287 -220.2 318.6 -182.5 336.8 -139.5C354.9 -96.5 359.7 -48.2 364.5 0L0 0Z" fill="#f47c5d"></path><path d="M0 -243C31 -236.4 61.9 -229.9 90.3 -218C118.7 -206.2 144.5 -189.1 167.9 -167.9C191.4 -146.8 212.4 -121.7 224.5 -93C236.6 -64.3 239.8 -32.2 243 0L0 0Z" fill="#fd9c46"></path><path d="M0 -121.5C15.5 -118.2 31 -114.9 45.2 -109C59.4 -103.1 72.3 -94.5 84 -84C95.7 -73.4 106.2 -60.8 112.3 -46.5C118.3 -32.2 119.9 -16.1 121.5 0L0 0Z" fill="#fbae3c"></path></g></svg>